<?xml version="1.0" standalone="no"?>
<!DOCTYPE svg PUBLIC "-//W3C//DTD SVG 20010904//EN"
 "http://www.w3.org/TR/2001/REC-SVG-20010904/DTD/svg10.dtd">
<svg version="1.0" xmlns="http://www.w3.org/2000/svg"
 width="1354.000000pt" height="1354.000000pt" viewBox="0 0 1354.000000 1354.000000"
 preserveAspectRatio="xMidYMid meet">
<metadata>
Created by potrace 1.14, written by Peter Selinger 2001-2017
</metadata>
<g transform="translate(0.000000,1354.000000) scale(0.100000,-0.100000)"
fill="#000000" stroke="none">
<path d="M12047 12294 c-1 -1 -38 -4 -82 -8 -85 -7 -128 -12 -185 -23 -19 -4
-42 -8 -50 -9 -27 -4 -225 -54 -240 -61 -8 -3 -21 -8 -27 -10 -7 -1 -19 -5
-25 -6 -7 -2 -21 -7 -30 -10 -10 -4 -26 -10 -35 -14 -10 -3 -24 -7 -31 -9 -8
-1 -21 -6 -30 -10 -9 -4 -19 -8 -22 -9 -102 -35 -452 -198 -487 -227 -7 -6
-13 -7 -13 -2 0 5 -4 5 -8 -1 -4 -5 -17 -16 -29 -22 -13 -7 -33 -19 -45 -25
-13 -7 -26 -17 -30 -23 -4 -5 -8 -6 -8 -2 0 4 -20 -6 -44 -23 -25 -16 -49 -30
-55 -30 -6 0 -11 -4 -11 -10 0 -5 -6 -10 -13 -10 -8 0 -23 -8 -35 -17 -26 -23
-116 -77 -119 -72 -1 2 -8 -3 -15 -11 -7 -9 -53 -43 -102 -75 -50 -33 -98 -67
-107 -75 -37 -32 -48 -40 -56 -40 -5 0 -16 -8 -25 -17 -25 -27 -46 -43 -57
-43 -5 0 -12 -7 -15 -16 -4 -9 -9 -14 -12 -11 -3 3 -16 -4 -28 -16 -11 -12
-38 -34 -58 -47 -21 -14 -38 -28 -38 -32 0 -5 -4 -8 -10 -8 -11 0 -53 -34 -79
-62 -8 -10 -19 -18 -23 -18 -4 0 -20 -12 -36 -27 -16 -16 -51 -47 -78 -69 -85
-72 -139 -118 -184 -159 -24 -22 -55 -50 -69 -63 -162 -145 -477 -456 -646
-637 -49 -53 -115 -123 -145 -155 -30 -32 -80 -86 -110 -121 -30 -34 -63 -69
-72 -78 -10 -8 -18 -18 -18 -22 0 -4 -15 -22 -32 -41 -69 -72 -98 -107 -98
-117 0 -6 -4 -11 -9 -11 -5 0 -33 -28 -61 -62 -29 -35 -71 -85 -93 -112 -52
-61 -62 -73 -137 -166 -33 -41 -70 -86 -83 -100 -12 -14 -33 -41 -46 -60 -13
-19 -30 -42 -38 -50 -8 -8 -43 -53 -79 -100 -36 -47 -72 -93 -79 -102 -48 -58
-285 -389 -285 -397 0 -5 -4 -11 -8 -13 -13 -5 -82 -111 -82 -125 0 -7 -5 -13
-10 -13 -6 0 -17 -18 -26 -40 -9 -22 -20 -40 -25 -40 -5 0 -9 -8 -9 -19 0 -10
-9 -30 -20 -44 -11 -14 -20 -29 -20 -33 0 -20 -35 -84 -47 -84 -7 0 -12 3 -11
8 4 12 -24 72 -34 72 -5 0 -6 5 -3 10 3 6 1 10 -5 10 -6 0 -9 4 -6 8 3 5 -4
18 -14 30 -11 12 -20 25 -20 29 0 4 -14 28 -31 53 -29 43 -30 45 -12 60 11 8
22 23 26 33 3 9 11 17 17 17 6 0 9 4 5 9 -3 5 2 17 11 26 9 9 14 19 10 22 -3
3 -2 11 4 17 22 28 29 142 12 206 -24 93 -92 176 -180 221 -26 13 -50 24 -54
25 -5 1 -9 2 -10 4 -3 2 -85 10 -103 10 -23 0 -61 -6 -70 -11 -13 -8 -58 -19
-65 -16 -3 1 -16 -8 -30 -20 -13 -13 -27 -23 -30 -23 -11 0 -70 -59 -70 -70 0
-6 -4 -10 -10 -10 -5 0 -10 -6 -10 -14 0 -8 -3 -16 -7 -18 -17 -7 -45 -111
-44 -167 0 -64 18 -141 33 -141 5 0 7 -4 4 -9 -7 -10 21 -49 76 -107 34 -36
37 -42 23 -54 -8 -7 -15 -16 -15 -21 0 -5 -13 -28 -29 -51 -16 -24 -27 -46
-25 -50 3 -5 0 -8 -5 -8 -6 0 -11 -7 -11 -15 0 -8 -4 -15 -10 -15 -5 0 -10 -8
-10 -17 0 -10 -4 -25 -10 -33 -7 -11 -11 -8 -20 15 -6 17 -10 31 -8 31 2 1 -5
11 -15 22 -10 11 -19 26 -21 34 -1 8 -12 31 -24 51 -12 21 -22 40 -22 43 0 6
-112 188 -120 194 -3 3 -21 28 -40 55 -19 28 -46 66 -60 85 -15 19 -73 98
-131 175 -57 77 -107 142 -111 143 -4 2 -8 10 -8 17 0 7 -3 15 -8 17 -4 2 -32
35 -62 73 -30 39 -57 72 -60 75 -3 3 -19 23 -35 45 -17 22 -32 42 -35 45 -3 3
-32 39 -65 80 -63 78 -80 99 -115 140 -12 14 -34 40 -48 59 -15 18 -40 48 -55
65 -15 17 -42 48 -60 69 -48 57 -57 68 -119 138 -31 35 -65 73 -75 85 -164
188 -298 329 -578 609 -253 252 -322 317 -551 520 -6 6 -27 25 -47 43 -20 17
-39 32 -41 32 -3 0 -18 12 -34 28 -16 15 -46 41 -67 57 -21 17 -43 35 -49 40
-6 6 -31 26 -56 45 -25 19 -47 38 -48 42 -2 5 -8 8 -14 8 -5 0 -17 8 -26 17
-9 9 -60 48 -112 87 -52 38 -97 72 -100 75 -12 14 -101 71 -110 71 -6 0 -10 4
-10 8 0 7 -84 64 -258 174 -15 9 -42 25 -60 34 -17 9 -32 21 -32 26 0 5 -4 7
-9 3 -5 -3 -15 1 -23 8 -15 16 -13 14 -238 130 -95 48 -178 87 -186 87 -8 0
-14 5 -14 10 0 6 -9 10 -19 10 -11 0 -23 5 -26 10 -4 6 -10 8 -15 5 -5 -3 -11
-1 -15 5 -4 6 -11 8 -16 5 -5 -4 -9 -2 -9 3 0 5 -19 15 -42 21 -24 7 -58 19
-76 27 -18 7 -35 13 -37 13 -3 1 -21 8 -41 16 -20 8 -40 12 -45 9 -5 -3 -9 0
-9 6 0 6 -4 9 -9 5 -5 -3 -13 0 -16 6 -4 5 -13 8 -20 5 -7 -2 -16 -2 -20 2 -4
4 -10 7 -13 8 -4 0 -25 5 -47 12 -22 6 -52 13 -67 16 -15 2 -31 7 -36 9 -4 3
-26 8 -48 11 -22 4 -51 9 -64 12 -32 7 -73 12 -137 18 -28 2 -55 6 -60 9 -12
7 -361 1 -413 -8 -100 -15 -215 -40 -252 -54 -14 -5 -28 -8 -30 -5 -3 2 -24
-2 -47 -10 -23 -9 -43 -15 -46 -16 -3 0 -7 -1 -10 -1 -3 -1 -9 -3 -15 -4 -5
-1 -11 -3 -12 -5 -3 -2 -34 -9 -58 -14 -8 -2 -26 -8 -40 -13 -14 -6 -28 -9
-32 -6 -5 2 -8 -1 -8 -8 0 -7 -3 -10 -6 -6 -3 3 -29 -3 -58 -15 -28 -11 -57
-21 -63 -21 -7 0 -13 -4 -13 -9 0 -4 -7 -8 -15 -8 -25 0 -211 -95 -264 -135
-42 -31 -119 -116 -137 -150 -24 -47 -31 -146 -14 -191 7 -16 13 -36 15 -44 7
-37 96 -152 184 -240 109 -107 118 -116 262 -230 57 -45 105 -87 107 -91 2 -5
9 -9 15 -9 7 0 28 -15 48 -33 20 -17 54 -45 75 -62 109 -84 216 -192 261 -262
9 -15 20 -30 23 -33 22 -20 144 -294 155 -350 2 -8 4 -15 5 -15 2 0 5 -14 14
-53 3 -12 7 -26 10 -30 3 -5 7 -19 10 -33 3 -13 13 -55 22 -94 9 -38 17 -80
17 -92 1 -13 4 -23 7 -23 4 0 7 -6 7 -12 1 -18 11 -88 17 -118 3 -14 8 -44 10
-65 3 -22 7 -51 10 -65 3 -13 6 -40 8 -60 1 -19 5 -40 10 -47 5 -7 5 -14 -2
-18 -6 -3 -7 -11 -4 -17 8 -13 13 -51 18 -148 3 -41 5 -75 6 -75 2 0 6 -55 15
-195 3 -47 6 -96 8 -110 2 -14 0 -35 -5 -47 -4 -13 -4 -23 0 -23 4 0 8 -42 8
-92 1 -51 2 -184 4 -296 2 -256 15 -303 112 -402 29 -30 48 -43 108 -73 25
-12 46 -25 48 -29 2 -5 12 -8 21 -8 10 0 21 -3 25 -7 3 -4 12 -8 19 -10 23 -5
42 -10 57 -16 23 -8 101 -26 140 -32 19 -2 46 -7 60 -9 14 -3 48 -7 75 -10 28
-3 50 -6 50 -7 0 -2 51 -5 133 -10 29 -1 55 -6 58 -11 3 -4 10 -6 15 -2 15 9
78 11 92 2 6 -3 19 -2 29 3 10 5 18 6 18 1 0 -9 700 -8 790 1 64 7 127 14 190
23 25 3 56 7 70 9 14 2 27 4 30 5 3 1 8 2 12 1 4 0 31 4 60 9 29 6 69 13 88
16 44 8 65 12 65 14 0 1 16 3 35 5 32 3 52 7 105 18 21 5 95 18 130 23 11 2
31 5 45 8 40 9 107 19 205 31 28 3 73 9 100 13 102 15 298 5 390 -20 22 -5 47
-11 55 -13 21 -4 132 -58 146 -70 6 -5 27 -21 47 -35 35 -24 48 -49 27 -51
-14 -2 -19 -3 -65 -18 -22 -7 -53 -16 -70 -21 -16 -4 -100 -29 -185 -55 -85
-26 -164 -49 -175 -52 -11 -3 -27 -7 -35 -10 -8 -3 -20 -7 -25 -8 -6 -2 -64
-20 -130 -41 -66 -21 -122 -39 -125 -39 -19 -4 -189 -58 -205 -65 -17 -7 -159
-55 -190 -63 -32 -9 -62 -19 -80 -27 -11 -4 -67 -25 -125 -45 -58 -20 -125
-44 -150 -53 -25 -9 -48 -16 -52 -14 -5 1 -8 -3 -8 -10 0 -6 -3 -9 -6 -5 -4 3
-19 0 -35 -9 -16 -8 -29 -12 -29 -9 0 3 -12 -3 -27 -12 -15 -10 -27 -17 -28
-15 0 4 -27 -6 -87 -31 -20 -8 -39 -13 -42 -9 -3 3 -6 1 -6 -5 0 -6 -10 -13
-22 -17 -13 -3 -25 -6 -28 -7 -3 -1 -22 -10 -43 -20 -20 -11 -37 -16 -37 -12
0 5 -4 2 -9 -5 -4 -7 -14 -15 -22 -16 -8 -1 -58 -24 -111 -49 -54 -26 -102
-47 -108 -47 -5 0 -10 -3 -10 -7 0 -5 -20 -17 -45 -28 -25 -11 -45 -23 -45
-27 0 -5 -5 -8 -10 -8 -14 0 -195 -109 -220 -132 -10 -10 -22 -18 -25 -18 -16
0 -205 -183 -205 -198 0 -7 -4 -12 -8 -12 -16 0 -64 -118 -68 -166 -2 -27 -4
-51 -5 -54 -1 -3 -1 -9 0 -14 3 -15 14 -110 14 -123 0 -7 3 -13 6 -13 3 0 7
-12 8 -27 1 -24 15 -80 31 -123 3 -8 6 -18 7 -22 2 -5 4 -11 5 -15 1 -5 2 -11
1 -15 0 -5 4 -8 10 -8 6 0 9 -6 6 -14 -3 -7 0 -19 6 -25 6 -6 12 -18 13 -27 4
-23 179 -370 195 -384 3 -3 16 -23 29 -45 13 -22 28 -43 33 -46 5 -3 9 -10 9
-15 1 -9 27 -54 38 -64 3 -3 11 -17 19 -32 8 -16 18 -28 23 -28 5 0 6 -4 3
-10 -3 -5 -1 -10 4 -10 6 0 11 -7 11 -15 0 -8 4 -15 8 -15 4 0 16 -13 25 -30
10 -16 23 -35 30 -42 7 -7 23 -30 36 -50 12 -21 27 -38 32 -38 5 0 9 -5 9 -10
0 -11 2 -14 50 -71 16 -20 30 -39 30 -42 0 -4 10 -17 23 -30 12 -13 29 -32 37
-43 39 -51 181 -214 232 -267 31 -32 60 -67 63 -78 4 -10 11 -19 16 -19 5 0 9
-8 9 -18 0 -10 4 -22 9 -27 6 -6 11 -21 13 -35 2 -14 6 -29 9 -35 15 -27 18
-263 5 -370 -4 -33 -9 -71 -10 -85 -1 -14 -6 -31 -10 -38 -4 -7 -5 -12 -3 -12
4 0 -8 -60 -29 -150 -4 -14 -7 -31 -7 -37 0 -7 -4 -13 -8 -13 -4 0 -6 -9 -4
-20 2 -11 -1 -20 -6 -20 -6 0 -7 -5 -4 -10 4 -6 1 -18 -7 -27 -11 -14 -11 -16
2 -8 13 7 13 6 2 -7 -11 -14 -22 -44 -37 -98 -5 -20 -30 -87 -46 -125 -7 -16
-13 -32 -14 -35 -7 -21 -31 -75 -56 -126 -16 -33 -29 -66 -29 -72 0 -7 -4 -12
-10 -12 -5 0 -10 -9 -10 -20 0 -11 -3 -20 -8 -20 -4 0 -15 -17 -25 -38 -54
-113 -160 -255 -283 -382 -136 -139 -175 -181 -319 -344 -16 -19 -40 -47 -52
-63 -12 -15 -30 -37 -40 -48 -10 -11 -30 -36 -43 -55 -13 -19 -33 -44 -43 -55
-10 -11 -25 -32 -33 -47 -8 -16 -19 -28 -25 -28 -6 0 -7 -4 -4 -10 3 -5 2 -10
-3 -10 -5 0 -15 -12 -23 -27 -8 -16 -21 -36 -31 -46 -9 -11 -27 -40 -40 -65
-12 -26 -29 -53 -35 -60 -7 -7 -13 -19 -13 -27 0 -7 -5 -15 -11 -17 -5 -2 -11
-11 -13 -21 -1 -10 -10 -27 -19 -37 -9 -11 -15 -20 -13 -20 3 0 -7 -33 -21
-72 -14 -40 -27 -82 -29 -93 -1 -11 -3 -20 -4 -20 -10 0 -15 -136 -7 -177 9
-45 30 -98 39 -98 4 0 8 -6 8 -12 1 -16 56 -78 70 -78 5 0 10 -4 10 -10 0 -5
9 -10 20 -10 11 0 20 -5 20 -10 0 -13 89 -10 96 2 3 5 10 6 15 3 5 -4 9 -2 9
4 0 5 10 13 21 16 26 9 146 130 154 156 4 10 10 19 14 19 5 0 14 14 21 30 7
17 16 30 20 30 4 0 10 8 13 18 8 24 50 96 62 104 6 4 6 8 1 8 -5 0 -3 7 4 15
17 21 50 87 50 102 0 7 4 13 10 13 5 0 15 18 21 40 7 22 18 45 26 51 7 6 13
17 13 24 0 7 14 39 31 71 18 32 31 60 31 61 -3 6 12 39 27 63 9 14 23 43 30
65 8 22 18 46 24 54 6 7 12 20 13 29 2 8 8 18 14 22 7 4 11 9 9 11 -1 2 8 25
20 51 11 26 21 51 21 57 0 5 4 11 8 13 5 2 24 35 42 73 18 39 36 72 39 75 3 3
19 30 35 60 47 88 51 95 56 100 3 3 14 23 25 45 11 22 43 82 72 134 29 51 53
95 53 98 0 8 125 218 133 224 5 3 8 8 6 10 -1 2 10 24 26 49 45 73 99 155 105
160 3 3 24 30 46 60 23 30 53 68 68 83 14 15 26 32 26 38 0 5 4 9 9 9 5 0 25
15 45 33 52 48 66 59 66 50 0 -4 6 1 13 10 19 26 136 64 187 62 25 -1 45 -3
45 -4 0 -3 12 -6 54 -15 41 -9 193 -90 256 -137 96 -70 208 -176 285 -268 19
-24 43 -51 53 -62 9 -10 17 -21 17 -24 0 -7 42 -67 51 -75 4 -3 9 -15 13 -27
4 -13 12 -23 17 -23 6 0 8 -4 5 -9 -3 -5 1 -14 9 -21 8 -7 15 -17 15 -22 0 -5
11 -33 23 -61 21 -46 37 -92 43 -122 1 -5 3 -13 4 -17 1 -5 4 -17 5 -28 1 -11
3 -21 5 -22 1 -2 3 -42 5 -90 2 -48 9 -96 15 -108 6 -11 8 -20 5 -20 -3 0 2
-13 11 -29 32 -54 93 -40 129 29 27 51 63 170 53 176 -5 3 -4 12 2 19 7 9 13
71 15 164 2 83 6 155 10 161 3 5 2 10 -3 10 -7 0 -9 53 -2 70 1 3 2 8 2 11 -5
42 2 209 12 304 7 61 18 139 23 159 2 12 7 37 10 56 3 19 10 41 15 48 6 6 8
12 5 12 -3 0 1 21 9 48 8 26 17 54 19 62 2 8 9 29 16 45 7 17 12 33 11 38 -1
4 3 7 10 7 6 0 9 3 5 6 -3 3 5 25 19 47 13 23 32 57 41 75 9 17 20 32 25 32 4
0 8 6 8 13 0 35 194 213 301 277 39 23 251 220 237 220 -3 0 8 15 25 34 18 19
55 65 82 103 28 37 53 70 58 71 4 2 7 9 7 16 0 7 11 26 25 42 14 16 25 32 25
36 0 4 6 13 13 20 6 8 18 25 26 38 8 14 34 58 58 98 23 39 40 72 37 72 -2 0 4
10 15 22 11 11 18 25 15 30 -3 4 -1 8 5 8 9 0 27 40 22 49 -2 2 2 7 7 10 8 5
43 75 132 266 10 22 33 76 50 120 18 44 36 85 41 91 5 6 6 14 2 17 -3 4 -1 12
4 19 10 13 33 76 33 91 0 4 6 20 14 36 9 16 12 31 9 35 -4 3 -2 6 4 6 6 0 14
-21 19 -47 4 -27 8 -50 9 -53 0 -3 4 -21 8 -40 10 -47 16 -76 23 -102 3 -13 7
-32 9 -43 7 -33 13 -60 15 -62 2 -2 4 -7 5 -13 1 -5 3 -11 4 -12 2 -2 5 -14 8
-28 7 -38 11 -55 13 -57 2 -2 3 -6 4 -10 1 -5 5 -14 9 -20 5 -7 6 -13 3 -13
-5 0 38 -121 65 -185 7 -16 12 -33 11 -37 -1 -5 3 -8 9 -8 5 0 7 -4 4 -10 -3
-5 -1 -10 4 -10 6 0 11 -7 11 -15 0 -21 66 -110 96 -130 34 -22 68 -13 108 28
39 39 96 148 131 247 15 41 29 82 32 90 3 8 7 20 8 25 2 6 11 37 21 70 10 33
17 64 16 69 -2 4 3 14 9 22 6 8 9 14 6 14 -3 0 -1 15 4 33 5 17 12 43 14 57
14 78 18 95 23 100 4 3 7 14 8 25 2 50 13 98 25 109 9 8 11 7 6 -6 -3 -9 -3
-18 1 -20 4 -2 18 -37 31 -78 14 -41 28 -82 32 -90 4 -8 11 -26 17 -40 5 -14
18 -43 28 -65 9 -22 17 -46 17 -52 0 -7 4 -13 9 -13 4 0 7 -3 6 -7 -4 -14 137
-305 192 -398 19 -33 42 -74 50 -90 8 -17 18 -34 23 -40 21 -28 87 -137 87
-145 0 -4 4 -10 8 -12 5 -1 23 -25 42 -53 39 -57 31 -46 111 -148 84 -106 254
-277 276 -277 5 0 21 -11 37 -25 16 -14 33 -25 38 -25 5 0 15 -6 23 -12 7 -7
32 -29 56 -48 73 -59 189 -193 189 -218 0 -6 3 -12 8 -14 6 -3 65 -114 68
-128 1 -5 15 -43 31 -80 3 -8 8 -24 10 -34 2 -11 8 -25 13 -31 5 -7 8 -14 5
-17 -3 -2 0 -20 6 -39 5 -19 12 -45 15 -59 2 -14 7 -41 10 -60 12 -62 15 -84
19 -135 9 -94 16 -260 20 -465 2 -113 6 -221 9 -240 3 -19 7 -44 9 -55 3 -20
15 -68 23 -95 3 -8 5 -17 5 -20 1 -9 42 -75 58 -91 29 -28 49 -29 76 -5 14 13
25 31 25 40 0 9 4 16 8 16 4 0 9 10 10 23 0 12 3 60 6 107 5 80 21 173 35 195
3 6 6 16 7 23 2 13 19 51 47 112 26 55 80 140 89 140 5 0 6 5 3 10 -3 6 -2 10
3 10 5 0 13 8 18 19 27 55 248 285 324 336 25 16 47 32 50 35 3 4 21 15 40 27
141 83 221 112 307 109 68 -2 71 -3 138 -37 67 -36 149 -109 221 -197 32 -40
65 -79 72 -87 6 -7 12 -18 12 -23 0 -6 4 -12 8 -14 8 -3 92 -127 92 -136 0 -3
11 -20 25 -37 13 -18 21 -35 18 -39 -4 -3 -1 -6 5 -6 7 0 12 -7 12 -15 0 -8 5
-15 10 -15 6 0 10 -4 10 -9 0 -6 15 -36 34 -68 55 -95 136 -243 180 -328 17
-33 39 -71 48 -84 10 -13 15 -28 12 -33 -3 -4 -2 -8 3 -8 4 0 21 -26 38 -58
16 -31 32 -59 35 -62 12 -12 40 -69 40 -84 0 -9 4 -16 8 -16 9 0 62 -109 62
-128 0 -7 5 -12 10 -12 6 0 10 -4 10 -9 0 -6 17 -47 39 -93 71 -153 75 -163
73 -170 -1 -5 3 -8 9 -8 5 0 7 -4 4 -10 -3 -5 -1 -10 4 -10 6 0 11 -6 11 -13
0 -17 147 -306 198 -391 23 -37 42 -72 42 -76 0 -5 3 -10 8 -12 4 -1 27 -29
51 -60 24 -32 47 -58 51 -58 3 0 13 -11 20 -25 7 -14 18 -25 23 -25 5 0 21 -9
37 -20 15 -11 30 -17 34 -13 3 3 6 2 6 -3 0 -19 79 -15 120 6 100 51 164 177
153 300 -4 51 -25 153 -33 165 -3 6 -13 30 -20 55 -7 25 -20 53 -28 63 -8 9
-12 17 -8 17 4 0 -2 13 -13 29 -12 16 -21 36 -21 45 0 9 -4 16 -10 16 -5 0
-10 4 -10 9 0 6 -13 30 -30 54 -16 25 -30 49 -30 55 0 6 -3 12 -8 14 -4 2 -27
32 -51 67 -46 69 -56 81 -83 112 -10 10 -18 23 -18 27 0 5 -13 21 -30 37 -16
16 -30 32 -30 36 0 5 -10 19 -22 32 -13 12 -48 52 -78 87 -94 109 -160 181
-325 350 -79 82 -205 245 -205 267 0 7 -3 13 -8 13 -4 0 -16 17 -27 37 -11 21
-32 60 -47 86 -16 26 -28 54 -28 62 0 8 -3 15 -8 15 -4 0 -13 15 -20 32 -7 18
-18 41 -23 50 -5 10 -9 25 -9 33 0 8 -5 15 -11 15 -5 0 -8 4 -4 9 3 5 1 12 -4
15 -5 3 -12 17 -15 30 -3 14 -11 38 -18 53 -6 15 -12 33 -14 38 -1 6 -12 39
-24 75 -12 36 -26 80 -31 98 -33 119 -36 131 -45 177 -9 46 -12 60 -14 60 -1
0 -4 14 -6 30 -2 17 -7 50 -10 75 -4 25 -7 57 -8 72 0 16 -3 28 -6 28 -7 0 -4
245 4 297 13 86 47 165 90 209 72 73 260 291 301 348 11 16 25 33 31 40 31 34
114 147 114 156 0 5 3 10 8 10 4 0 18 17 32 38 14 20 31 43 37 50 7 7 13 17
13 22 0 5 6 15 13 22 27 28 227 349 227 364 0 2 11 22 25 44 14 22 23 40 19
40 -3 0 3 12 14 28 10 15 25 43 32 62 8 19 22 50 32 68 10 18 18 41 18 52 0
11 5 20 10 20 6 0 10 8 10 18 0 10 5 23 12 30 7 7 9 12 6 12 -4 0 2 26 13 57
11 32 22 69 24 83 3 14 7 36 10 50 20 89 20 218 2 236 -4 4 -7 18 -7 31 0 12
-4 23 -8 23 -5 0 -16 19 -26 41 -21 47 -157 188 -226 234 -25 17 -46 33 -48
38 -2 4 -10 7 -17 7 -7 0 -15 4 -17 8 -4 10 -156 102 -168 102 -6 0 -10 5 -10
10 0 6 -9 10 -20 10 -11 0 -20 4 -20 8 0 7 -43 27 -64 29 -5 1 -12 6 -16 13
-4 6 -13 12 -21 14 -8 1 -50 19 -93 41 -43 21 -85 38 -92 38 -8 0 -14 4 -14 8
0 6 -29 20 -50 24 -3 0 -27 11 -55 24 -27 12 -57 24 -66 26 -9 2 -25 8 -35 13
-44 23 -137 57 -146 54 -5 -1 -8 3 -8 8 0 6 -8 10 -18 10 -10 0 -23 5 -30 12
-7 7 -12 8 -12 4 0 -5 -7 -3 -15 4 -8 7 -15 10 -15 7 0 -3 -17 1 -37 10 -37
15 -288 103 -308 108 -5 1 -19 5 -30 9 -11 5 -31 12 -45 16 -14 4 -34 11 -45
16 -11 4 -26 8 -33 10 -8 1 -21 6 -30 10 -9 4 -26 9 -37 11 -11 1 -29 7 -40
12 -27 12 -74 28 -110 37 -34 8 -34 8 -55 17 -54 21 -262 81 -272 79 -5 -1 -8
2 -8 6 0 5 -7 9 -15 9 -13 0 -61 13 -125 34 -73 24 -228 69 -245 72 -11 1 -26
6 -33 11 -7 4 -16 5 -19 2 -3 -3 -15 1 -27 9 -11 8 -30 15 -42 15 -51 0 -32
24 70 91 33 22 65 39 73 39 7 0 13 5 13 11 0 5 5 7 10 4 6 -4 16 -2 23 4 7 5
24 12 37 15 29 6 61 14 93 22 33 9 348 12 377 3 22 -7 65 -13 175 -24 17 -2
30 -4 30 -5 0 -1 11 -3 25 -5 14 -2 39 -6 55 -10 17 -4 44 -8 60 -10 17 -2 30
-4 30 -5 0 -2 31 -8 80 -15 22 -3 51 -8 65 -11 14 -3 35 -6 48 -7 12 0 22 -4
22 -7 0 -3 10 -6 23 -7 12 0 42 -4 67 -8 82 -13 105 -16 138 -17 17 -1 32 -4
32 -8 0 -3 15 -7 34 -8 37 -3 77 -7 171 -18 33 -4 84 -8 112 -8 29 -1 53 -4
53 -8 0 -4 11 -3 24 2 13 5 26 7 29 4 7 -7 157 -10 157 -4 0 3 17 4 38 2 48
-4 62 -5 92 -3 14 1 42 1 63 -1 20 -2 37 -1 37 2 0 3 18 5 40 5 22 0 40 -4 40
-8 0 -5 5 -5 12 -1 7 4 53 8 102 10 110 2 313 13 347 19 13 2 49 6 79 9 30 4
69 9 85 12 17 3 39 7 50 9 11 2 31 6 45 9 61 14 80 17 85 17 3 -1 19 6 35 14
17 9 30 13 30 9 0 -4 7 0 17 7 9 8 17 12 17 10 2 -8 113 50 135 70 11 11 21
18 21 15 0 -3 13 7 29 22 15 15 27 29 25 31 -2 2 5 10 16 18 11 8 20 19 20 24
0 6 9 29 20 52 13 25 23 70 25 112 4 55 16 594 16 680 0 11 5 23 12 27 7 4 7
8 2 8 -6 0 -10 20 -9 48 1 26 3 47 4 47 1 0 3 32 5 70 2 39 6 95 9 125 4 30 8
82 11 115 5 58 9 87 20 158 3 17 7 48 9 67 2 19 5 35 6 35 1 0 3 14 5 30 3 28
6 47 20 115 2 13 7 42 11 64 3 22 8 44 11 48 2 5 6 18 9 31 2 12 6 33 9 47 4
14 8 35 11 48 2 13 16 58 30 100 14 42 27 84 29 92 2 8 4 16 5 18 2 1 3 5 5
10 13 48 104 232 137 280 74 104 159 191 278 282 18 14 42 33 54 44 11 10 48
39 81 64 33 26 65 51 72 57 6 5 26 21 44 35 114 87 369 329 369 351 0 4 6 14
13 21 19 20 56 93 61 119 3 13 5 26 6 29 2 3 2 8 1 13 0 4 3 7 8 7 15 0 2 100
-18 145 -27 60 -165 195 -200 195 -6 0 -11 4 -11 8 0 5 -16 14 -35 22 -19 8
-35 18 -35 22 0 5 -4 7 -9 3 -5 -3 -12 -1 -16 5 -4 6 -11 8 -16 5 -5 -4 -9 -1
-9 5 0 7 -7 10 -15 6 -8 -3 -15 -1 -15 4 0 5 -12 13 -27 16 -16 4 -32 10 -38
14 -8 6 -71 29 -95 35 -3 1 -18 7 -33 13 -16 7 -32 10 -37 7 -5 -3 -10 -1 -12
5 -2 6 -13 12 -26 15 -12 2 -50 11 -85 20 -34 9 -69 18 -77 20 -8 2 -15 4 -15
6 0 2 -25 7 -60 12 -11 2 -25 6 -31 10 -6 3 -25 8 -43 9 -17 1 -31 5 -31 8 0
3 -8 6 -17 6 -10 1 -36 4 -58 8 -68 12 -164 18 -293 20 -68 0 -124 0 -125 0z
m1038 -794 c3 -5 1 -10 -4 -10 -6 0 -11 5 -11 10 0 6 2 10 4 10 3 0 8 -4 11
-10z m-2204 -607 c13 -16 12 -17 -3 -4 -10 7 -18 15 -18 17 0 8 8 3 21 -13z
m610 -430 c13 -16 12 -17 -3 -4 -17 13 -22 21 -14 21 2 0 10 -8 17 -17z m236
-1118 c0 -8 -4 -12 -9 -9 -5 3 -6 10 -3 15 9 13 12 11 12 -6z m-2037 -245 c0
-5 -2 -10 -4 -10 -3 0 -8 5 -11 10 -3 6 -1 10 4 10 6 0 11 -4 11 -10z m2111
-7 c13 -16 12 -17 -3 -4 -10 7 -18 15 -18 17 0 8 8 3 21 -13z m-2151 -713 c0
-5 -2 -10 -4 -10 -3 0 -8 5 -11 10 -3 6 -1 10 4 10 6 0 11 -4 11 -10z m-1760
-480 c0 -5 -2 -10 -4 -10 -3 0 -8 5 -11 10 -3 6 -1 10 4 10 6 0 11 -4 11 -10z
m-165 -168 c-3 -3 -11 0 -18 7 -9 10 -8 11 6 5 10 -3 15 -9 12 -12z"/>
</g>
</svg>
